<?xml version="1.0" encoding="utf-8"?>
<!-- Generator: Adobe Illustrator 24.3.0, SVG Export Plug-In . SVG Version: 6.00 Build 0)  -->
<svg version="1.1" id="Layer_1" xmlns="http://www.w3.org/2000/svg" xmlns:xlink="http://www.w3.org/1999/xlink" x="0px" y="0px"
	 viewBox="0 0 80.9 104.6" style="enable-background:new 0 0 80.9 104.6;" xml:space="preserve">
<style type="text/css">
	.st0{fill:#880A1F;}
	.st1{fill:none;stroke:#880A1F;stroke-width:3;stroke-miterlimit:10;}
</style>
<g>
	<g>
		<g>
			<path class="st0" d="M71.1,52.2c0-2.9,2.1-5.3,4.7-5.7l1-0.1l-0.2-1.1c-0.4-2.1-1-4.2-1.8-6.2l-0.4-1l-0.9,0.5
				c-2.6,1.4-5.8,0.4-7.2-2.3c-1.3-2.5-0.7-5.7,1.4-7.5l0.8-0.7l-0.7-0.8c-1.4-1.6-2.9-3.1-4.5-4.4l-0.8-0.7L62,23
				c-1.6,2.6-4.8,3.4-7.3,1.8c-2.3-1.5-3.3-4.6-2.3-7.2l0.4-1l-1-0.3c-1.9-0.7-3.9-1.1-6-1.4l-1-0.2l-0.1,1.1
				c-0.2,3.1-2.6,5.5-5.5,5.5c-2.7,0-5-2.2-5.3-5l-0.1-1.1l-1,0.2c-2,0.5-4,1.1-5.8,1.9l-1,0.4l0.5,1c1.3,2.8,0.4,6.2-2.2,7.7
				c-2.3,1.4-5.3,0.8-7-1.5L16.7,24l-0.8,0.7c-1.5,1.5-2.9,3.1-4.2,4.8l-0.6,0.9L12,31c2.4,1.7,3.2,5.2,1.7,7.8
				c-1.4,2.5-4.3,3.5-6.8,2.4l-1-0.4l-0.3,1.1c-0.6,2.1-1.1,4.2-1.4,6.4l-0.1,1.1l1,0.1c2.9,0.2,5.2,2.8,5.1,5.9
				c0,1.3-0.3,3.2-0.2,3.6c-0.2,2-0.1,6.8,5.3,9c6.6,2.7,13.8-1.3,15.6-8.7c-0.7-0.5-1.5-1.1-2.4-1.7c2.2-10.6,10.3-17.9,19.6-18.2
				c1.9-0.1,3.3,0.1,3.5,2.9c0.8,9.6-4.2,19-12.3,22.7c-1.2,0.6-2.4,1.2-3.5-0.6c-0.2-0.4-1.9-0.4-2.5,0c-4.4,2.7-6.6,9.1-5.2,14.5
				c0.7,2.6,3.3,6.1,9.4,7.1c1.1,0.2,3,0.3,4.4,0.3c2.7,0,5,2.2,5.3,5l0.1,1.1l1-0.2c2-0.5,3.9-1.1,5.8-1.9l1-0.4l-0.5-1
				c-1.3-2.8-0.4-6.2,2.2-7.7c2.3-1.4,5.3-0.8,7,1.5l0.6,0.9l0.8-0.7c1.5-1.5,2.9-3.1,4.2-4.8l0.6-0.9l-0.9-0.6
				c-2.4-1.7-3.2-5.2-1.7-7.8c1.4-2.5,4.3-3.5,6.8-2.4l1,0.4l0.3-1.1c0.6-2.1,1.1-4.2,1.4-6.4l0.1-1.1l-1-0.1
				C73.3,57.9,71.1,55.3,71.1,52.2z M22.1,57.1c1.5-4.1,3.3-7.2,7.2-8.7C28.7,55,26.8,57.4,22.1,57.1z M40.7,66.1
				c1.5-0.5,2.9-1.6,5-2.9c-1,5-3.6,7.3-7.2,9.2C37.8,69.5,37.2,67.2,40.7,66.1z M74.3,64c-3.1-0.8-6.5,0.6-8.1,3.6
				c-1.8,3.3-1.2,7.4,1.5,9.9c-0.8,1.1-1.7,2.1-2.6,3c-2.3-2.4-5.9-2.9-8.7-1.2c-3.1,1.9-4.5,5.8-3.4,9.4c-1.2,0.5-2.5,0.9-3.7,1.2
				c-0.9-3.3-3.7-5.8-7-5.7c-9.7,0.3-12.2-4.6-12.5-7.7c-0.4-4.6,1.1-8.2,4.7-10.7c0.4,0.1,0.7,0.1,1.1,0.2c0.2,3.1,0.4,6.2,0.5,9.2
				c5.9-1.1,10.5-6.1,11.5-12.1c0.2-1.5,0.9-3.1,1.7-4.4c3.7-5.6,4.9-11.6,4.1-18.3c-0.2-2-1-2.9-3-2.9c-6.5-0.2-12,2-16.8,6.6
				c-0.8,0.8-1.7,1.9-2.7,2c-7.2,1.3-9.5,7-11.5,13.9c3.3-0.2,6.3-0.4,9.4-0.6c-1.4,6-10.2,9.5-14,5.9c-0.7-0.7-2.2-1.6-2.6-4.3
				c0-0.1,0-4.3,0-5.7c0-3.8-2.5-7.1-5.9-7.8c0.2-1.4,0.5-2.7,0.9-4c3.1,0.8,6.5-0.6,8.1-3.6c1.8-3.3,1.2-7.4-1.5-9.9
				c0.8-1.1,1.7-2.1,2.6-3c2.3,2.4,5.9,2.9,8.7,1.2c3.1-1.9,4.5-5.8,3.4-9.4c1.2-0.5,2.5-0.9,3.7-1.2c0.9,3.3,3.7,5.7,7,5.7
				c3.6,0,6.6-2.6,7.3-6.3c1.3,0.2,2.5,0.5,3.8,0.9c-0.8,3.3,0.6,6.9,3.4,8.7c3.1,2,7,1.2,9.3-1.6c1,0.9,1.9,1.8,2.8,2.8
				c-2.2,2.5-2.7,6.3-1.1,9.3c1.8,3.3,5.4,4.8,8.7,3.6c0.5,1.3,0.8,2.6,1.1,4c-3.1,0.9-5.3,4-5.4,7.5c0,3.8,2.5,7.1,5.9,7.8
				C74.9,61.3,74.6,62.7,74.3,64z"/>
			<path class="st0" d="M44.3,51.9c-0.2-2.4-1.7-3.8-4-3.6c-2.1,0.2-3.4,1.8-3.2,4.1c0.1,2.4,1.5,3.8,3.9,3.7
				C43.2,55.8,44.5,54.3,44.3,51.9z"/>
		</g>
		<ellipse class="st0" cx="60" cy="39.8" rx="2.9" ry="3"/>
		<ellipse class="st0" cx="60.6" cy="58.6" rx="2.9" ry="3"/>
		<ellipse class="st0" cx="52.9" cy="72.3" rx="2.9" ry="3"/>
		<ellipse class="st0" cx="42.7" cy="29.1" rx="2.9" ry="3"/>
		<ellipse class="st0" cx="27.4" cy="35.4" rx="2.9" ry="3"/>
		<path class="st1" d="M42.7,29.1c0,0-7.3,0.9-9.2,1.7c-1.9,0.8-6.2,4.6-6.2,4.6"/>
		<path class="st1" d="M60,39.8c0,0,2.4,12.2,0.7,18.8c-1.6,6.2-7,14.4-7,14.4"/>
	</g>
	<ellipse class="st0" cx="17.1" cy="73.2" rx="2" ry="2.1"/>
	<ellipse class="st0" cx="23.3" cy="73.6" rx="2.4" ry="2.5"/>
	<ellipse class="st0" cx="22.1" cy="80.1" rx="1.5" ry="1.6"/>
	<ellipse class="st0" cx="17.2" cy="78.1" rx="1.3" ry="1.4"/>
	<ellipse class="st0" cx="20.2" cy="76.9" rx="0.7" ry="0.7"/>
	<ellipse class="st0" cx="15.8" cy="81.6" rx="0.9" ry="0.9"/>
	<ellipse class="st0" cx="14.9" cy="79.5" rx="0.6" ry="0.6"/>
	<ellipse class="st0" cx="16" cy="83.8" rx="0.4" ry="0.5"/>
</g>
</svg>
