<?xml version="1.0" encoding="utf-8"?>
<!-- Generator: Adobe Illustrator 24.3.0, SVG Export Plug-In . SVG Version: 6.00 Build 0)  -->
<svg version="1.1" id="Layer_1" xmlns="http://www.w3.org/2000/svg" xmlns:xlink="http://www.w3.org/1999/xlink" x="0px" y="0px"
	 viewBox="0 0 327.9 104.6" style="enable-background:new 0 0 327.9 104.6;" xml:space="preserve">
<style type="text/css">
	.st0{fill:#FFFFFF;}
	.st1{fill:#880A1F;}
	.st2{fill:none;stroke:#880A1F;stroke-width:3;stroke-miterlimit:10;}
</style>
<g>
	<rect x="10.2" y="88" class="st0" width="133.4" height="0.7"/>
</g>
<g>
	<g>
		<g>
			<path class="st1" d="M205.5,50.5c0-3.9,3-7.2,6.8-7.7l1.5-0.2l-0.3-1.4c-0.6-2.9-1.5-5.7-2.6-8.4l-0.6-1.4l-1.3,0.7
				c-3.8,1.9-8.3,0.5-10.4-3.2c-1.9-3.4-1-7.7,2-10l1.2-0.9l-1-1.1c-2-2.2-4.1-4.2-6.4-6l-1.2-0.9l-0.8,1.2
				c-2.3,3.5-6.9,4.6-10.5,2.4c-3.3-2-4.7-6.1-3.3-9.7l0.6-1.4l-1.4-0.4c-2.8-0.9-5.7-1.5-8.6-1.9L167.7,0l-0.1,1.5
				c-0.2,4.2-3.7,7.4-7.9,7.4c-3.9,0-7.2-3-7.7-6.8l-0.2-1.5l-1.5,0.3c-2.9,0.6-5.7,1.5-8.4,2.6l-1.4,0.6l0.7,1.3
				c1.9,3.8,0.5,8.3-3.2,10.4c-3.4,1.9-7.7,1-10-2l-0.9-1.2l-1.1,1c-2.2,2-4.2,4.1-6,6.4l-0.9,1.2l1.2,0.8c3.5,2.3,4.6,6.9,2.4,10.5
				c-2,3.3-6.2,4.7-9.7,3.3l-1.4-0.6l-0.4,1.4c-0.9,2.8-1.5,5.7-1.9,8.6l-0.2,1.5l1.5,0.1c4.2,0.2,7.4,3.7,7.4,7.9
				c0,1.7-0.4,4.3-0.3,4.8c-0.2,2.6-0.1,9.2,7.7,12.1c9.5,3.6,19.8-1.7,22.5-11.7c-1.1-0.7-2.2-1.4-3.4-2.3
				c3.1-14.2,14.8-24.1,28.3-24.6c2.8-0.1,4.7,0.1,5,3.8c1.1,12.9-6,25.6-17.7,30.6c-1.8,0.8-3.5,1.7-5-0.8c-0.4-0.6-2.7-0.6-3.7,0
				c-6.4,3.6-9.6,12.3-7.5,19.5c1,3.5,4.7,8.2,13.5,9.6c1.5,0.3,4.3,0.4,6.3,0.5c3.9,0,7.2,3,7.7,6.8l0.2,1.5l1.4-0.3
				c2.9-0.6,5.7-1.5,8.4-2.6l1.4-0.6l-0.7-1.3c-1.9-3.8-0.5-8.3,3.2-10.4c3.4-1.9,7.7-1,10,2l0.9,1.2l1.1-1c2.2-2,4.2-4.1,6-6.4
				l0.9-1.2l-1.2-0.8c-3.5-2.3-4.6-6.9-2.4-10.6c2-3.3,6.2-4.7,9.7-3.2l1.4,0.6l0.4-1.4c0.9-2.8,1.5-5.7,1.9-8.6l0.2-1.5l-1.5-0.1
				C208.7,58.2,205.4,54.7,205.5,50.5z M135,57.2c2.1-5.5,4.8-9.7,10.3-11.7C144.5,54.3,141.7,57.6,135,57.2z M161.8,69.3
				c2.2-0.6,4.1-2.2,7.2-3.9c-1.5,6.7-5.2,9.9-10.4,12.4C157.5,73.9,156.7,70.7,161.8,69.3z M210,66.4c-4.5-1.1-9.3,0.8-11.7,4.9
				c-2.6,4.4-1.7,10,2.1,13.3c-1.2,1.4-2.5,2.8-3.8,4.1c-3.3-3.2-8.4-3.9-12.5-1.6c-4.5,2.5-6.5,7.8-4.8,12.6
				c-1.7,0.7-3.5,1.2-5.3,1.7c-1.3-4.4-5.3-7.8-10-7.7c-13.9,0.4-17.5-6.2-17.9-10.3c-0.6-6.2,1.6-11,6.7-14.4
				c0.5,0.1,1.1,0.2,1.6,0.3c0.3,4.1,0.5,8.3,0.8,12.4c8.5-1.4,15.1-8.2,16.5-16.3c0.3-2.1,1.3-4.2,2.5-6c5.3-7.5,7.1-15.7,5.9-24.7
				c-0.4-2.7-1.4-3.9-4.3-3.9c-9.3-0.2-17.3,2.6-24.2,8.9c-1.2,1.1-2.5,2.5-3.9,2.8c-10.3,1.8-13.7,9.5-16.5,18.7
				c4.7-0.3,9-0.5,13.5-0.8c-2.1,8.1-14.7,12.8-20.1,8c-1-0.9-3.2-2.2-3.7-5.8c0-0.1-0.1-5.7,0-7.7c0.1-5.2-3.6-9.5-8.5-10.5
				c0.3-1.8,0.7-3.7,1.2-5.5c4.5,1.1,9.3-0.8,11.7-4.9c2.6-4.4,1.7-10-2.1-13.3c1.2-1.4,2.5-2.8,3.8-4.1c3.3,3.2,8.4,3.9,12.5,1.6
				c4.5-2.5,6.5-7.9,4.8-12.6c1.7-0.6,3.5-1.2,5.3-1.7c1.2,4.5,5.3,7.6,10,7.7c5.2,0.1,9.5-3.6,10.5-8.5c1.8,0.3,3.7,0.7,5.5,1.2
				c-1.1,4.5,0.8,9.3,4.9,11.7c4.4,2.6,10,1.7,13.3-2.1c1.4,1.2,2.8,2.5,4.1,3.8c-3.2,3.3-3.9,8.4-1.6,12.5
				c2.5,4.5,7.8,6.5,12.6,4.8c0.6,1.7,1.2,3.5,1.7,5.3c-4.4,1.3-7.6,5.3-7.7,10c-0.1,5.2,3.6,9.5,8.5,10.5
				C210.9,62.8,210.5,64.6,210,66.4z"/>
			<path class="st1" d="M166.9,50.1c-0.3-3.2-2.5-5.2-5.8-4.8c-3,0.3-4.8,2.4-4.7,5.5c0.2,3.3,2.1,5.1,5.6,5
				C165.4,55.4,167.2,53.4,166.9,50.1z"/>
		</g>
		<circle class="st1" cx="189.5" cy="33.8" r="4.1"/>
		<circle class="st1" cx="190.4" cy="59.1" r="4.1"/>
		<circle class="st1" cx="179.3" cy="77.6" r="4.1"/>
		<circle class="st1" cx="164.6" cy="19.4" r="4.1"/>
		<circle class="st1" cx="142.6" cy="27.9" r="4.1"/>
		<path class="st2" d="M164.6,19.4c0,0-10.5,1.2-13.2,2.3c-2.8,1.1-8.9,6.2-8.9,6.2"/>
		<path class="st2" d="M189.5,33.8c0,0,3.4,16.5,1,25.3c-2.3,8.3-10.1,19.4-10.1,19.4"/>
	</g>
	<circle class="st1" cx="127.8" cy="78.8" r="2.9"/>
	<circle class="st1" cx="136.7" cy="79.4" r="3.4"/>
	<circle class="st1" cx="135" cy="88" r="2.2"/>
	<circle class="st1" cx="127.9" cy="85.4" r="1.8"/>
	<circle class="st1" cx="132.3" cy="83.9" r="1"/>
	<circle class="st1" cx="125.9" cy="90.1" r="1.3"/>
	<circle class="st1" cx="124.7" cy="87.3" r="0.8"/>
	<circle class="st1" cx="126.1" cy="93.1" r="0.6"/>
</g>
</svg>
